<?xml version="1.0" standalone="no"?>
<!DOCTYPE svg PUBLIC "-//W3C//DTD SVG 20010904//EN"
 "http://www.w3.org/TR/2001/REC-SVG-20010904/DTD/svg10.dtd">
<svg version="1.0" xmlns="http://www.w3.org/2000/svg"
 width="500.000000pt" height="500.000000pt" viewBox="0 0 500.000000 500.000000"
 preserveAspectRatio="xMidYMid meet">

<g transform="translate(0.000000,500.000000) scale(0.100000,-0.100000)"
fill="#000000" stroke="none">
<path d="M2420 3163 c-17 -14 -35 -36 -40 -48 -7 -18 -26 -26 -100 -43 -286
-67 -528 -270 -638 -534 -33 -80 -62 -204 -62 -267 0 -39 -1 -40 -37 -43 -38
-3 -38 -3 -35 -43 5 -68 47 -139 109 -189 62 -49 147 -86 196 -86 42 0 59 -11
47 -30 -6 -8 -10 -27 -10 -42 l0 -28 655 0 c720 0 673 -4 640 60 -13 25 -13
29 1 34 9 3 28 6 44 6 46 0 133 39 192 85 62 49 105 122 110 190 3 40 3 40
-34 43 -37 3 -38 4 -38 43 0 63 -29 187 -62 267 -110 264 -352 467 -638 534
-79 18 -93 24 -105 49 -38 73 -134 94 -195 42z m144 -29 c14 -15 26 -29 26
-33 0 -3 -40 -6 -90 -6 -49 0 -90 3 -90 6 0 4 12 18 26 33 19 19 37 26 64 26
27 0 45 -7 64 -26z m38 -79 c65 -8 153 -26 195 -40 323 -108 557 -393 589
-717 l7 -68 -893 0 -893 0 8 73 c9 98 56 237 108 325 144 240 376 390 661 426
55 8 101 14 101 15 0 0 53 -6 117 -14z m858 -876 c0 -51 -56 -131 -124 -178
-92 -63 -70 -62 -836 -62 -624 0 -702 2 -746 17 -90 30 -169 98 -199 171 -31
75 -123 68 945 68 880 0 960 -1 960 -16z m-354 -304 c9 -14 15 -28 12 -30 -3
-3 -283 -4 -622 -3 l-618 3 22 28 21 27 584 0 585 0 16 -25z"/>
<path d="M2102 2885 c-146 -84 -270 -227 -328 -381 -13 -35 -24 -73 -24 -84 0
-33 28 -23 35 13 12 53 69 168 117 232 50 68 124 134 211 189 32 20 55 41 52
46 -9 14 -15 13 -63 -15z"/>
<path d="M2105 2138 c-2 -7 -10 -35 -19 -63 -8 -27 -17 -58 -21 -67 -6 -15 -1
-18 30 -18 20 0 34 4 31 9 -7 11 13 71 25 71 5 0 4 -12 -2 -27 -14 -37 -4 -55
28 -51 26 3 28 6 28 53 0 48 -1 50 -28 50 -23 -1 -27 3 -25 25 2 19 -2 26 -20
28 -12 2 -24 -3 -27 -10z"/>
<path d="M2622 2138 c-7 -7 -12 -18 -12 -25 0 -7 -5 -13 -11 -13 -6 0 -8 -7
-5 -15 3 -9 0 -34 -8 -55 l-14 -40 33 0 c30 0 33 3 39 42 4 23 14 47 24 54 16
13 16 13 0 14 -19 0 -26 30 -8 30 6 0 10 -4 10 -10 0 -5 9 -10 20 -10 24 0 27
25 4 34 -25 10 -59 7 -72 -6z"/>
<path d="M3049 2145 c-1 -3 -3 -9 -4 -15 -1 -5 -3 -14 -4 -19 0 -6 -16 -11
-33 -13 -21 -2 -36 -10 -43 -25 l-11 -21 -9 21 c-15 34 -87 36 -111 4 l-19
-24 -10 21 c-16 31 -80 34 -111 5 -26 -24 -31 -58 -12 -77 21 -21 77 -14 102
12 l24 23 11 -23 c15 -33 73 -33 105 0 l24 23 11 -23 c9 -20 17 -22 63 -21 45
2 53 5 51 21 0 10 5 37 13 59 21 59 18 77 -11 77 -14 0 -26 -2 -26 -5z m-299
-96 c-10 -35 -17 -45 -25 -37 -7 7 15 68 25 68 5 0 5 -14 0 -31z m150 27 c0
-1 -5 -17 -11 -35 -14 -41 -30 -40 -18 1 5 18 9 34 9 35 0 2 5 3 10 3 6 0 10
-2 10 -4z m125 -23 c-8 -31 -13 -39 -20 -31 -9 9 6 58 17 58 6 0 7 -11 3 -27z"/>
<path d="M1968 2124 c-33 -17 -48 -43 -48 -81 0 -37 16 -53 56 -53 43 0 82 33
90 77 6 31 3 39 -16 55 -27 22 -46 22 -82 2z m48 -39 c-12 -46 -25 -75 -36
-75 -13 0 -13 29 1 69 13 38 44 44 35 6z"/>
<path d="M2240 2079 c0 -11 -7 -35 -14 -54 l-15 -35 33 0 c31 0 34 3 40 40 3
22 11 40 17 40 6 0 8 -9 4 -22 -4 -13 -7 -25 -7 -28 -1 -26 5 -31 29 -28 22 2
28 9 30 32 1 16 7 34 12 39 8 8 10 -1 8 -29 -2 -36 0 -39 23 -39 25 0 27 3 33
75 2 19 -3 26 -21 28 -13 2 -30 -2 -38 -8 -8 -8 -14 -8 -14 -2 0 6 -26 10 -60
10 -53 0 -60 -2 -60 -19z"/>
<path d="M2461 2086 c-8 -10 -9 -16 -1 -21 5 -3 10 -19 10 -34 0 -15 5 -32 12
-39 6 -6 9 -15 5 -18 -3 -4 -14 1 -23 10 -19 20 -40 7 -31 -18 16 -40 103 -1
131 58 21 44 18 69 -8 74 -17 4 -18 -1 -13 -32 7 -42 -10 -59 -19 -19 -3 15
-7 34 -10 41 -5 16 -39 15 -53 -2z"/>
</g>
</svg>
